<mxfile host="app.diagrams.net" modified="2023-05-21T09:33:46.831Z" agent="Mozilla/5.0 (Windows NT 10.0; Win64; x64) AppleWebKit/537.36 (KHTML, like Gecko) Chrome/113.0.0.0 Safari/537.36 Edg/113.0.1774.50" etag="WPLdvmkclANtFPqP1OY7" version="21.3.2" type="github">
  <diagram name="Σελίδα-1" id="3amP75kJeSOvBXIbC_eX">
    <mxGraphModel dx="1072" dy="504" grid="1" gridSize="10" guides="1" tooltips="1" connect="1" arrows="1" fold="1" page="1" pageScale="1" pageWidth="3300" pageHeight="4681" math="0" shadow="0">
      <root>
        <mxCell id="0" />
        <mxCell id="1" parent="0" />
        <mxCell id="pmRhDcLN0mvBYwqN2G9U-1" value="Exec_P1,P2,P3,P4,P5,P6,P7" style="whiteSpace=wrap;html=1;align=center;" vertex="1" parent="1">
          <mxGeometry x="800" y="120" width="1450" height="40" as="geometry" />
        </mxCell>
        <mxCell id="pmRhDcLN0mvBYwqN2G9U-2" value="Get_Όλοι_οι_χάρτες" style="whiteSpace=wrap;html=1;align=center;" vertex="1" parent="1">
          <mxGeometry x="610" y="360" width="110" height="40" as="geometry" />
        </mxCell>
        <mxCell id="pmRhDcLN0mvBYwqN2G9U-3" value="" style="endArrow=classic;html=1;rounded=0;exitX=0.028;exitY=1.043;exitDx=0;exitDy=0;exitPerimeter=0;entryX=0.5;entryY=0;entryDx=0;entryDy=0;" edge="1" parent="1" source="pmRhDcLN0mvBYwqN2G9U-1" target="pmRhDcLN0mvBYwqN2G9U-2">
          <mxGeometry width="50" height="50" relative="1" as="geometry">
            <mxPoint x="790" y="290" as="sourcePoint" />
            <mxPoint x="840" y="240" as="targetPoint" />
          </mxGeometry>
        </mxCell>
        <mxCell id="pmRhDcLN0mvBYwqN2G9U-4" value="Όλοι οι χάρτες" style="text;html=1;strokeColor=none;fillColor=none;align=center;verticalAlign=middle;whiteSpace=wrap;rounded=0;" vertex="1" parent="1">
          <mxGeometry x="650" y="280" width="60" height="30" as="geometry" />
        </mxCell>
        <mxCell id="pmRhDcLN0mvBYwqN2G9U-5" value="" style="endArrow=classic;html=1;rounded=0;" edge="1" parent="1">
          <mxGeometry width="50" height="50" relative="1" as="geometry">
            <mxPoint x="700" y="270" as="sourcePoint" />
            <mxPoint x="720" y="250" as="targetPoint" />
          </mxGeometry>
        </mxCell>
        <mxCell id="pmRhDcLN0mvBYwqN2G9U-6" value="Get_Όνομα χάρτη&lt;br&gt;Ον.προσθήκη χάρτη" style="whiteSpace=wrap;html=1;align=center;" vertex="1" parent="1">
          <mxGeometry x="730" y="360" width="130" height="40" as="geometry" />
        </mxCell>
        <mxCell id="pmRhDcLN0mvBYwqN2G9U-7" value="" style="endArrow=classic;html=1;rounded=0;exitX=0.09;exitY=1.064;exitDx=0;exitDy=0;exitPerimeter=0;entryX=0.377;entryY=-0.044;entryDx=0;entryDy=0;entryPerimeter=0;" edge="1" parent="1" source="pmRhDcLN0mvBYwqN2G9U-1" target="pmRhDcLN0mvBYwqN2G9U-6">
          <mxGeometry width="50" height="50" relative="1" as="geometry">
            <mxPoint x="830" y="310" as="sourcePoint" />
            <mxPoint x="880" y="260" as="targetPoint" />
          </mxGeometry>
        </mxCell>
        <mxCell id="pmRhDcLN0mvBYwqN2G9U-8" value="" style="endArrow=classic;html=1;rounded=0;" edge="1" parent="1">
          <mxGeometry width="50" height="50" relative="1" as="geometry">
            <mxPoint x="820" y="270" as="sourcePoint" />
            <mxPoint x="840" y="240" as="targetPoint" />
          </mxGeometry>
        </mxCell>
        <mxCell id="pmRhDcLN0mvBYwqN2G9U-9" value="Όνομα χάρτη&lt;br&gt;Ον.προσθήκη χάρτη" style="text;html=1;strokeColor=none;fillColor=none;align=center;verticalAlign=middle;whiteSpace=wrap;rounded=0;" vertex="1" parent="1">
          <mxGeometry x="750" y="280" width="70" height="30" as="geometry" />
        </mxCell>
        <mxCell id="pmRhDcLN0mvBYwqN2G9U-10" value="calc_Ρ1.χάρτης&lt;br&gt;μήνυμα λάθους&lt;br&gt;Προσθήκη χάρτη" style="whiteSpace=wrap;html=1;align=center;" vertex="1" parent="1">
          <mxGeometry x="870" y="360" width="130" height="40" as="geometry" />
        </mxCell>
        <mxCell id="pmRhDcLN0mvBYwqN2G9U-11" value="" style="endArrow=classic;html=1;rounded=0;entryX=0.172;entryY=-0.148;entryDx=0;entryDy=0;entryPerimeter=0;" edge="1" parent="1" target="pmRhDcLN0mvBYwqN2G9U-10">
          <mxGeometry width="50" height="50" relative="1" as="geometry">
            <mxPoint x="940" y="170" as="sourcePoint" />
            <mxPoint x="980" y="260" as="targetPoint" />
          </mxGeometry>
        </mxCell>
        <mxCell id="pmRhDcLN0mvBYwqN2G9U-12" value="" style="endArrow=classic;html=1;rounded=0;" edge="1" parent="1">
          <mxGeometry width="50" height="50" relative="1" as="geometry">
            <mxPoint x="910" y="240" as="sourcePoint" />
            <mxPoint x="900" y="270" as="targetPoint" />
          </mxGeometry>
        </mxCell>
        <mxCell id="pmRhDcLN0mvBYwqN2G9U-13" value="Όλοι οι χάρτες&lt;br&gt;Όνομα χάρτη&lt;br&gt;Ον.προσθήκη χάρτη" style="text;html=1;strokeColor=none;fillColor=none;align=center;verticalAlign=middle;whiteSpace=wrap;rounded=0;" vertex="1" parent="1">
          <mxGeometry x="830" y="290" width="80" height="30" as="geometry" />
        </mxCell>
        <mxCell id="pmRhDcLN0mvBYwqN2G9U-15" value="" style="endArrow=classic;html=1;rounded=0;" edge="1" parent="1">
          <mxGeometry width="50" height="50" relative="1" as="geometry">
            <mxPoint x="930" y="270" as="sourcePoint" />
            <mxPoint x="940" y="230" as="targetPoint" />
          </mxGeometry>
        </mxCell>
        <mxCell id="pmRhDcLN0mvBYwqN2G9U-16" value="χάρτης&lt;br&gt;μήνυμα λάθους&lt;br&gt;Προσθήκη χάρτη" style="text;html=1;strokeColor=none;fillColor=none;align=center;verticalAlign=middle;whiteSpace=wrap;rounded=0;" vertex="1" parent="1">
          <mxGeometry x="910" y="280" width="100" height="30" as="geometry" />
        </mxCell>
        <mxCell id="pmRhDcLN0mvBYwqN2G9U-17" value="put_χάρτες" style="whiteSpace=wrap;html=1;align=center;" vertex="1" parent="1">
          <mxGeometry x="1020" y="360" width="120" height="40" as="geometry" />
        </mxCell>
        <mxCell id="pmRhDcLN0mvBYwqN2G9U-18" value="" style="endArrow=classic;html=1;rounded=0;exitX=0.221;exitY=1;exitDx=0;exitDy=0;exitPerimeter=0;entryX=0.352;entryY=-0.073;entryDx=0;entryDy=0;entryPerimeter=0;" edge="1" parent="1" source="pmRhDcLN0mvBYwqN2G9U-1" target="pmRhDcLN0mvBYwqN2G9U-17">
          <mxGeometry width="50" height="50" relative="1" as="geometry">
            <mxPoint x="1040" y="260" as="sourcePoint" />
            <mxPoint x="1090" y="210" as="targetPoint" />
          </mxGeometry>
        </mxCell>
        <mxCell id="pmRhDcLN0mvBYwqN2G9U-19" value="" style="endArrow=classic;html=1;rounded=0;" edge="1" parent="1">
          <mxGeometry width="50" height="50" relative="1" as="geometry">
            <mxPoint x="1080" y="230" as="sourcePoint" />
            <mxPoint x="1070" y="260" as="targetPoint" />
          </mxGeometry>
        </mxCell>
        <mxCell id="pmRhDcLN0mvBYwqN2G9U-20" value="χάρτης" style="text;html=1;strokeColor=none;fillColor=none;align=center;verticalAlign=middle;whiteSpace=wrap;rounded=0;" vertex="1" parent="1">
          <mxGeometry x="1030" y="260" width="60" height="30" as="geometry" />
        </mxCell>
        <mxCell id="pmRhDcLN0mvBYwqN2G9U-21" value="" style="endArrow=classic;html=1;rounded=0;exitX=0.402;exitY=1.081;exitDx=0;exitDy=0;exitPerimeter=0;entryX=0.205;entryY=-0.058;entryDx=0;entryDy=0;entryPerimeter=0;" edge="1" parent="1" source="pmRhDcLN0mvBYwqN2G9U-1" target="pmRhDcLN0mvBYwqN2G9U-22">
          <mxGeometry width="50" height="50" relative="1" as="geometry">
            <mxPoint x="1190" y="350" as="sourcePoint" />
            <mxPoint x="1170" y="350" as="targetPoint" />
          </mxGeometry>
        </mxCell>
        <mxCell id="pmRhDcLN0mvBYwqN2G9U-22" value="put_μήνυμα λάθους&lt;br&gt;Προσθήκη χάρτη" style="whiteSpace=wrap;html=1;align=center;" vertex="1" parent="1">
          <mxGeometry x="1160" y="360" width="110" height="40" as="geometry" />
        </mxCell>
        <mxCell id="pmRhDcLN0mvBYwqN2G9U-23" value="" style="endArrow=classic;html=1;rounded=0;" edge="1" parent="1">
          <mxGeometry width="50" height="50" relative="1" as="geometry">
            <mxPoint x="1250" y="240" as="sourcePoint" />
            <mxPoint x="1230" y="270" as="targetPoint" />
          </mxGeometry>
        </mxCell>
        <mxCell id="pmRhDcLN0mvBYwqN2G9U-24" value="μήνυμα λάθους&lt;br&gt;Προσθήκη χάρτη" style="text;html=1;strokeColor=none;fillColor=none;align=center;verticalAlign=middle;whiteSpace=wrap;rounded=0;" vertex="1" parent="1">
          <mxGeometry x="1150" y="280" width="100" height="30" as="geometry" />
        </mxCell>
      </root>
    </mxGraphModel>
  </diagram>
</mxfile>
